<svg xmlns="http://www.w3.org/2000/svg" width="1000" height="510" viewBox="0 0 1000 510"><rect width="1000" height="510" fill="#f6f8f3"/><g font-family="Microsoft YaHei,Arial" fill="#264736"><text x="40" y="52" font-size="26">欧盟2023年包装废弃物构成</text><text x="40" y="86" font-size="16">按材料占比（%） · 来源：Eurostat，2025-10-22发布</text><text x="40" y="139" font-size="18">纸和纸板</text><rect x="155" y="115" width="646.4" height="32" rx="4" fill="#488263"/><text x="816.4" y="138" font-size="18">40.4%</text><text x="40" y="191" font-size="18">塑料</text><rect x="155" y="167" width="316.8" height="32" rx="4" fill="#488263"/><text x="486.8" y="190" font-size="18">19.8%</text><text x="40" y="243" font-size="18">玻璃</text><rect x="155" y="219" width="300.8" height="32" rx="4" fill="#488263"/><text x="470.8" y="242" font-size="18">18.8%</text><text x="40" y="295" font-size="18">木材</text><rect x="155" y="271" width="252.8" height="32" rx="4" fill="#488263"/><text x="422.8" y="294" font-size="18">15.8%</text><text x="40" y="347" font-size="18">金属</text><rect x="155" y="323" width="78.4" height="32" rx="4" fill="#488263"/><text x="248.4" y="346" font-size="18">4.9%</text><text x="40" y="399" font-size="18">其他</text><rect x="155" y="375" width="3.2" height="32" rx="4" fill="#488263"/><text x="173.2" y="398" font-size="18">0.2%</text><text x="40" y="465" font-size="14">统计地域为欧盟；百分比经四舍五入，合计可能不等于100%。本站据公开数据绘制。</text></g></svg>